<svg viewBox="0 0 44 44">
  <g fill="none" stroke-width="3" transform="translate(4 4)">
    <circle cx="18" cy="18" r="18" stroke="none"/>
    <circle cx="18" cy="18" r="16.5"/>
  </g>
  <path stroke="none" d="M19.771 24.374V23.6a2.892 2.892 0 0 1 .362-1.5 3.8 3.8 0 0 1 1.285-1.19 4.827 4.827 0 0 0 1.055-.833 1.262 1.262 0 0 0 .321-.851.684.684 0 0 0-.344-.6 1.629 1.629 0 0 0-.9-.222 7.048 7.048 0 0 0-3.2.969l-1.25-2.467a9.37 9.37 0 0 1 4.707-1.285 5.069 5.069 0 0 1 3.168.887 2.889 2.889 0 0 1 1.15 2.417 3.448 3.448 0 0 1-.511 1.9 5.211 5.211 0 0 1-1.634 1.516 6.32 6.32 0 0 0-1.19.9 1.014 1.014 0 0 0-.24.674v.462Zm-.389 3.168a1.673 1.673 0 0 1 .484-1.285 2.017 2.017 0 0 1 1.426-.453 1.948 1.948 0 0 1 1.389.457 1.676 1.676 0 0 1 .484 1.281 1.63 1.63 0 0 1-.5 1.276 1.973 1.973 0 0 1-1.371.453 2.046 2.046 0 0 1-1.4-.448 1.619 1.619 0 0 1-.513-1.281Z" data-name="Path 1"/>

</svg>
