<svg viewBox="0 0 24 24">
  <path fill="none" d="M0 0h24v24H0z"/>
  <path  d="m20.15 22.53-3.56-3.57-.1-.1a9.18 9.18 0 0 1-5.25 1.62 9.18 9.18 0 0 1-6.53-2.7A9.18 9.18 0 0 1 2 11.24a9.18 9.18 0 0 1 2.7-6.53A9.18 9.18 0 0 1 11.24 2a9.18 9.18 0 0 1 6.54 2.7 9.18 9.18 0 0 1 2.7 6.54 9.18 9.18 0 0 1-1.63 5.25l.12.1 3.56 3.56a1.68 1.68 0 0 1 0 2.38 1.68 1.68 0 0 1-1.19.49 1.68 1.68 0 0 1-1.19-.5ZM6.5 6.49a6.73 6.73 0 0 0 0 9.5 6.73 6.73 0 0 0 9.5 0 6.73 6.73 0 0 0 0-9.5 6.7 6.7 0 0 0-4.75-1.97A6.7 6.7 0 0 0 6.49 6.5Z"/>
</svg>
