<svg xmlns="http://www.w3.org/2000/svg" viewBox="0 0 294.81 44">
  <defs>
    <clipPath id="a">
      <path fill="#fff" stroke="#707070" d="M0 0h44v44H0z" data-name="Rectangle 3" transform="translate(475 11)"/>
    </clipPath>
  </defs>
  <g clip-path="url(#a)" data-name="logo_site-logo_znak" transform="translate(-475 -11)">
    <g data-name="Group 1" transform="rotate(-45 477.55 -29.2)">
      <path fill="#569ddc" d="m432.48 17.48 25.51-9.29 9.28 25.52-25.5 9.28z" data-name="Rectangle 2"/>
      <path fill="#004685" d="M432.61 17.34h27.14v27.14h-27.14z" data-name="Rectangle 1"/>
      <circle cx="2.33" cy="2.33" r="2.33" fill="#fff" data-name="Ellipse 1" transform="translate(451.5 28.98)"/>
    </g>
  </g>
  <path fill="#004685" d="M66.55 35h-6.17V17.2H54.8v-5.04h17.3v5.04h-5.55Zm30.96 0h-6.2v-9.31h-7.17V35h-6.2V12.16h6.2v8.46h7.17v-8.46h6.2Zm7.5 0V12.16h6.2V35Zm28.64-6.94a6.74 6.74 0 0 1-1.08 3.78 7.06 7.06 0 0 1-3.1 2.56 11.53 11.53 0 0 1-4.77.91 19.28 19.28 0 0 1-3.83-.32 14.21 14.21 0 0 1-3.22-1.11v-5.5a18.38 18.38 0 0 0 3.67 1.41 13.68 13.68 0 0 0 3.5.5 3.4 3.4 0 0 0 2.02-.47 1.47 1.47 0 0 0 .64-1.22 1.35 1.35 0 0 0-.26-.82 3 3 0 0 0-.83-.72q-.57-.35-3.04-1.46a14.58 14.58 0 0 1-3.35-1.98 6.04 6.04 0 0 1-1.66-2.18 7.26 7.26 0 0 1-.54-2.92 5.86 5.86 0 0 1 2.3-4.93 10.13 10.13 0 0 1 6.32-1.76 17.71 17.71 0 0 1 7.23 1.64l-1.89 4.76a13.7 13.7 0 0 0-5.53-1.46 2.88 2.88 0 0 0-1.75.42 1.28 1.28 0 0 0-.55 1.04 1.51 1.51 0 0 0 .7 1.2 26.5 26.5 0 0 0 3.77 1.95 10.44 10.44 0 0 1 4.1 2.85 6.2 6.2 0 0 1 1.15 3.83Zm19.81.74a5.75 5.75 0 0 1-2.2 4.78 9.59 9.59 0 0 1-6.08 1.73 14.5 14.5 0 0 1-6.34-1.2v-3.53a17.24 17.24 0 0 0 3.32 1.15 14.08 14.08 0 0 0 3.27.43 5.2 5.2 0 0 0 3.27-.85 2.75 2.75 0 0 0 1.06-2.26 2.84 2.84 0 0 0-.97-2.18 14.58 14.58 0 0 0-4-2.1 10.58 10.58 0 0 1-4.4-2.9 6.12 6.12 0 0 1-1.29-3.9 5.47 5.47 0 0 1 2.03-4.5 8.43 8.43 0 0 1 5.45-1.64 16.02 16.02 0 0 1 6.53 1.44l-1.18 3.04a14.27 14.27 0 0 0-5.44-1.28 4.17 4.17 0 0 0-2.75.8 2.6 2.6 0 0 0-.94 2.08 2.94 2.94 0 0 0 .38 1.52 3.83 3.83 0 0 0 1.23 1.2 20.88 20.88 0 0 0 3.1 1.48 16.93 16.93 0 0 1 3.68 1.96 5.75 5.75 0 0 1 1.72 2.04 6.16 6.16 0 0 1 .55 2.69Zm6.98 6.2V12.16h3.74V35Zm20.22 0h-3.73V15.36h-6.73v-3.2h17.17v3.2h-6.72Zm25.7 0h-12.92V12.16h12.92v3.15h-9.19v6.22h8.6v3.13h-8.6v7.17h9.19Zm13.67 0h-1.61V13.66H211v-1.5h16.45v1.5h-7.42Zm13.37 0V12.16h1.6V35Zm16.58 0h-1.61V13.66h-7.43v-1.5h16.46v1.5h-7.42Zm13.37 0V12.16h1.6V33.5h10.88V35Zm31.46 0h-12.48V12.16h12.48v1.46h-10.89v8.65h10.28v1.46h-10.28v9.8h10.9Z" data-name="Path 81"/>
</svg>
